# xmcd
#
# Track frame offsets: 
#        150
#        4700
#        20400
#        43698
#        61128
#        76845
#        88000
#        92168
#        114265
#        129953
#        147225
#        162365
#        176880
#        181778
#        197685
#        218373
#        236813
#        255658
#
# Disc length: 3573 seconds
#
# Revision: 2
# Processed by: cddbd v1.5.1PL0 Copyright (c) Steve Scherf et al.
# Submitted via: ExactAudioCopy v0.95a5
#
DISCID=e30df312
DTITLE=Arie, India - Voyage to India
DYEAR=2002
DGENRE=Neo-Soul, R&B
TTITLE0=*Growth*
TTITLE1=Little Things
TTITLE2=Talk to Her
TTITLE3=Slow Down
TTITLE4=The Truth
TTITLE5=Beautiful Surprise
TTITLE6=*Healing*
TTITLE7=Get It Together
TTITLE8=Headed in the Right Direction
TTITLE9=Can I Walk with You
TTITLE10=The One
TTITLE11=Complicated Melody
TTITLE12=*Gratitude*
TTITLE13=Good Man
TTITLE14=God Is Real
TTITLE15=Interested
TTITLE16=Butterfly
TTITLE17=Christmas Song
EXTD=
EXTT0=
EXTT1=
EXTT2=
EXTT3=
EXTT4=
EXTT5=
EXTT6=
EXTT7=
EXTT8=
EXTT9=
EXTT10=
EXTT11=
EXTT12=
EXTT13=
EXTT14=
EXTT15=
EXTT16=
EXTT17=
PLAYORDER=
